<svg width="32" height="32" viewBox="0 0 32 32" xmlns="http://www.w3.org/2000/svg">
  <title>wulkano-logo</title>
  <path d="M16 32C7.177 32 0 24.823 0 16S7.177 0 16 0s16 7.177 16 16-7.177 16-16 16zm0-30.316C8.106 1.684 1.684 8.106 1.684 16c0 7.894 6.422 14.316 14.316 14.316 7.894 0 14.316-6.422 14.316-14.316 0-7.894-6.422-14.316-14.316-14.316zm11.19 12.744l-4.246 6.35c-.003.003-.03.037-.035.04l-.127.09a.186.186 0 0 1-.09.03h-.936a.17.17 0 0 1-.097-.03l-.08-.058a.077.077 0 0 1-.025-.026l-4.668-8.487a.117.117 0 0 0-.033-.037l-.088-.06a.108.108 0 0 0-.06-.02h-1.413c-.02 0-.04.008-.06.02l-.087.06a.106.106 0 0 0-.033.037l-4.668 8.487a.075.075 0 0 1-.024.026l-.08.058a.173.173 0 0 1-.097.03h-.935a.182.182 0 0 1-.09-.03l-.127-.09c-.003-.003-.03-.037-.034-.04l-4.246-6.35a.083.083 0 0 1-.003-.086l.04-.07a.102.102 0 0 1 .088-.052l1.597.002a.47.47 0 0 1 .21.05l.07.033c.03.015.058.038.077.067l2.664 3.83c.01.012.016.026.022.04l.08.22.046-.212a.26.26 0 0 1 .027-.072l4.194-7.674a.131.131 0 0 1 .065-.06l.1-.047a.118.118 0 0 1 .045-.01h3.73c.015 0 .03.004.044.01l.1.046c.03.013.052.034.066.06l4.195 7.675a.245.245 0 0 1 .028.072l.047.213.08-.22a.181.181 0 0 1 .02-.042l2.666-3.828a.193.193 0 0 1 .078-.067l.07-.034a.528.528 0 0 1 .21-.048l1.597-.002c.036 0 .07.02.088.05l.04.072a.083.083 0 0 1-.003.086z" fill="#919191" fill-rule="evenodd"/>
</svg>
